<svg xmlns="http://www.w3.org/2000/svg" viewBox="0 0 2501 3501" width="2501" height="3501"><g xmlns="http://www.w3.org/2000/svg" transform="matrix(0 1 -1 0 2501 -0)"><path fill-rule="evenodd" fill="rgb(0%, 69.726562%, 23.143005%)" fill-opacity="1" d="M 206.726562 187.28125 L 3295.109375 187.28125 L 3295.109375 2313.039062 L 206.726562 2313.039062 L 206.726562 187.28125 " /><path fill-rule="evenodd" fill="rgb(0%, 59.959412%, 19.993591%)" fill-opacity="1" d="M 206.726562 187.28125 C 260.820312 187.28125 314.914062 187.28125 369.429688 187.28125 C 369.429688 541.640625 369.429688 896.21875 369.429688 1250.371094 C 369.429688 1604.523438 369.429688 1958.890625 369.429688 2313.039062 C 314.914062 2313.039062 260.820312 2313.039062 206.726562 2313.039062 C 206.726562 1958.890625 206.726562 1604.523438 206.726562 1250.371094 C 206.726562 896.21875 206.726562 541.640625 206.726562 187.28125 " /><path fill-rule="evenodd" fill="rgb(0%, 59.959412%, 19.993591%)" fill-opacity="1" d="M 531.710938 187.28125 C 585.800781 187.28125 639.894531 187.28125 694.410156 187.28125 C 694.410156 541.640625 694.410156 896.21875 694.410156 1250.371094 C 694.410156 1604.523438 694.410156 1958.890625 694.410156 2313.039062 C 639.894531 2313.039062 585.800781 2313.039062 531.710938 2313.039062 C 531.710938 1958.890625 531.710938 1604.523438 531.710938 1250.371094 C 531.710938 896.21875 531.710938 541.640625 531.710938 187.28125 " /><path fill-rule="evenodd" fill="rgb(0%, 59.959412%, 19.993591%)" fill-opacity="1" d="M 857.113281 187.28125 C 911.207031 187.28125 965.300781 187.28125 1019.390625 187.28125 C 1019.390625 541.640625 1019.390625 896.21875 1019.390625 1250.371094 C 1019.390625 1604.523438 1019.390625 1958.890625 1019.390625 2313.039062 C 965.300781 2313.039062 911.207031 2313.039062 857.113281 2313.039062 C 857.113281 1958.890625 857.113281 1604.523438 857.113281 1250.371094 C 857.113281 896.21875 857.113281 541.640625 857.113281 187.28125 " /><path fill-rule="evenodd" fill="rgb(0%, 59.959412%, 19.993591%)" fill-opacity="1" d="M 1182.101562 187.28125 C 1236.191406 187.28125 1290.28125 187.28125 1344.371094 187.28125 C 1344.371094 541.640625 1344.371094 896.21875 1344.371094 1250.371094 C 1344.371094 1604.523438 1344.371094 1958.890625 1344.371094 2313.039062 C 1290.28125 2313.039062 1236.191406 2313.039062 1182.101562 2313.039062 C 1182.101562 1958.890625 1182.101562 1604.523438 1182.101562 1250.371094 C 1182.101562 896.21875 1182.101562 541.640625 1182.101562 187.28125 " /><path fill-rule="evenodd" fill="rgb(0%, 59.959412%, 19.993591%)" fill-opacity="1" d="M 1507.078125 187.28125 C 1561.171875 187.28125 1615.261719 187.28125 1669.78125 187.28125 C 1669.78125 541.640625 1669.78125 896.21875 1669.78125 1250.371094 C 1669.78125 1604.523438 1669.78125 1958.890625 1669.78125 2313.039062 C 1615.261719 2313.039062 1561.171875 2313.039062 1507.078125 2313.039062 C 1507.078125 1958.890625 1507.078125 1604.523438 1507.078125 1250.371094 C 1507.078125 896.21875 1507.078125 541.640625 1507.078125 187.28125 " /><path fill-rule="evenodd" fill="rgb(0%, 59.959412%, 19.993591%)" fill-opacity="1" d="M 1832.058594 187.28125 C 1886.148438 187.28125 1940.25 187.28125 1994.761719 187.28125 C 1994.761719 541.640625 1994.761719 896.21875 1994.761719 1250.371094 C 1994.761719 1604.523438 1994.761719 1958.890625 1994.761719 2313.039062 C 1940.25 2313.039062 1886.148438 2313.039062 1832.058594 2313.039062 C 1832.058594 1958.890625 1832.058594 1604.523438 1832.058594 1250.371094 C 1832.058594 896.21875 1832.058594 541.640625 1832.058594 187.28125 " /><path fill-rule="evenodd" fill="rgb(0%, 59.959412%, 19.993591%)" fill-opacity="1" d="M 2157.039062 187.28125 C 2211.140625 187.28125 2265.230469 187.28125 2319.738281 187.28125 C 2319.738281 541.640625 2319.738281 896.21875 2319.738281 1250.371094 C 2319.738281 1604.523438 2319.738281 1958.890625 2319.738281 2313.039062 C 2265.230469 2313.039062 2211.140625 2313.039062 2157.039062 2313.039062 C 2157.039062 1958.890625 2157.039062 1604.523438 2157.039062 1250.371094 C 2157.039062 896.21875 2157.039062 541.640625 2157.039062 187.28125 " /><path fill-rule="evenodd" fill="rgb(0%, 59.959412%, 19.993591%)" fill-opacity="1" d="M 2482.449219 187.28125 C 2536.539062 187.28125 2590.628906 187.28125 2644.730469 187.28125 C 2644.730469 541.640625 2644.730469 896.21875 2644.730469 1250.371094 C 2644.730469 1604.523438 2644.730469 1958.890625 2644.730469 2313.039062 C 2590.628906 2313.039062 2536.539062 2313.039062 2482.449219 2313.039062 C 2482.449219 1958.890625 2482.449219 1604.523438 2482.449219 1250.371094 C 2482.449219 896.21875 2482.449219 541.640625 2482.449219 187.28125 " /><path fill-rule="evenodd" fill="rgb(0%, 59.959412%, 19.993591%)" fill-opacity="1" d="M 2807.429688 187.28125 C 2861.519531 187.28125 2915.621094 187.28125 2970.128906 187.28125 C 2970.128906 541.640625 2970.128906 896.21875 2970.128906 1250.371094 C 2970.128906 1604.523438 2970.128906 1958.890625 2970.128906 2313.039062 C 2915.621094 2313.039062 2861.519531 2313.039062 2807.429688 2313.039062 C 2807.429688 1958.890625 2807.429688 1604.523438 2807.429688 1250.371094 C 2807.429688 896.21875 2807.429688 541.640625 2807.429688 187.28125 " /><path fill-rule="evenodd" fill="rgb(0%, 59.959412%, 19.993591%)" fill-opacity="1" d="M 3132.410156 187.28125 C 3186.511719 187.28125 3240.601562 187.28125 3295.109375 187.28125 C 3295.109375 541.640625 3295.109375 896.21875 3295.109375 1250.371094 C 3295.109375 1604.523438 3295.109375 1958.890625 3295.109375 2313.039062 C 3240.601562 2313.039062 3186.511719 2313.039062 3132.410156 2313.039062 C 3132.410156 1958.890625 3132.410156 1604.523438 3132.410156 1250.371094 C 3132.410156 896.21875 3132.410156 541.640625 3132.410156 187.28125 " /><path fill-rule="nonzero" fill="rgb(100%, 100%, 100%)" fill-opacity="1" d="M 381.164062 350.730469 L 1761.898438 350.730469 L 1761.898438 2149.589844 C 1298 2149.519531 834.089844 2149.519531 370.179688 2149.589844 L 370.179688 350.730469 Z M 1739.941406 372.699219 L 392.144531 372.699219 L 392.144531 2127.621094 L 1739.941406 2127.621094 L 1739.941406 372.699219 " /><path fill-rule="nonzero" fill="rgb(100%, 100%, 100%)" fill-opacity="1" d="M 381.164062 350.730469 L 452.910156 350.730469 L 452.910156 361.710938 C 452.910156 381.519531 444.878906 399.460938 431.894531 412.449219 C 418.910156 425.429688 400.972656 433.460938 381.164062 433.460938 L 370.179688 433.460938 L 370.179688 350.730469 Z M 429.730469 372.699219 L 392.144531 372.699219 L 392.144531 410.28125 C 401.484375 408.179688 409.832031 403.449219 416.367188 396.921875 C 422.902344 390.378906 427.628906 382.039062 429.730469 372.699219 " /><path fill-rule="evenodd" fill="rgb(100%, 100%, 100%)" fill-opacity="1" d="M 1750.921875 1286.441406 C 1730.878906 1286.441406 1714.640625 1270.199219 1714.640625 1250.160156 C 1714.640625 1230.121094 1730.878906 1213.878906 1750.921875 1213.878906 C 1770.960938 1213.878906 1787.199219 1230.121094 1787.199219 1250.160156 C 1787.199219 1270.199219 1770.960938 1286.441406 1750.921875 1286.441406 " /><path fill-rule="nonzero" fill="rgb(100%, 100%, 100%)" fill-opacity="1" d="M 1761.898438 936.140625 L 1761.898438 1575.160156 L 1750.921875 1575.160156 C 1661.179688 1575.160156 1579.929688 1538.78125 1521.109375 1479.96875 C 1462.300781 1421.148438 1425.921875 1339.898438 1425.921875 1250.160156 C 1425.921875 1160.421875 1462.300781 1079.171875 1521.109375 1020.351562 C 1579.929688 961.539062 1661.179688 925.160156 1750.921875 925.160156 L 1761.898438 925.160156 Z M 1739.941406 1552.996094 L 1739.941406 947.320312 C 1660.621094 950.148438 1589.070312 983.449219 1536.640625 1035.878906 C 1481.800781 1090.71875 1447.878906 1166.480469 1447.878906 1250.160156 C 1447.878906 1333.839844 1481.800781 1409.601562 1536.640625 1464.441406 C 1589.070312 1516.867188 1660.621094 1550.171875 1739.941406 1552.996094 " /><path fill-rule="nonzero" fill="rgb(100%, 100%, 100%)" fill-opacity="1" d="M 381.164062 606.320312 L 932.632812 606.320312 L 932.632812 1894.003906 L 370.179688 1894.003906 L 370.179688 606.320312 Z M 910.667969 628.28125 L 392.144531 628.28125 L 392.144531 1872.039062 L 910.667969 1872.039062 L 910.667969 628.28125 " /><path fill-rule="nonzero" fill="rgb(100%, 100%, 100%)" fill-opacity="1" d="M 381.164062 947.851562 L 591.101562 947.851562 L 591.101562 1552.472656 L 370.183594 1552.472656 C 370.152344 1350.929688 370.152344 1149.390625 370.183594 947.851562 Z M 569.136719 969.808594 L 392.144531 969.808594 L 392.144531 1530.507812 L 569.136719 1530.507812 L 569.136719 969.808594 " /><path fill-rule="nonzero" fill="rgb(100%, 100%, 100%)" fill-opacity="1" d="M 318.273438 1099.148438 L 392.144531 1099.148438 L 392.144531 1401.171875 L 307.292969 1401.171875 L 307.292969 1099.148438 Z M 370.179688 1121.109375 L 329.257812 1121.109375 L 329.257812 1379.210938 L 370.179688 1379.210938 L 370.179688 1121.109375 " /><path fill-rule="nonzero" fill="rgb(100%, 100%, 100%)" fill-opacity="1" d="M 927.097656 967.96875 C 976.835938 996.460938 1018.328125 1037.738281 1047.101562 1087.339844 C 1074.890625 1135.25 1090.800781 1190.871094 1090.800781 1250.160156 C 1090.800781 1309.449219 1074.890625 1365.070312 1047.101562 1412.980469 C 1018.328125 1462.578125 976.835938 1503.863281 927.097656 1532.351562 L 910.667969 1541.765625 L 910.667969 958.558594 Z M 1028.140625 1098.320312 C 1004.558594 1057.671875 971.773438 1022.988281 932.632812 997.128906 L 932.632812 1503.1875 C 971.773438 1477.328125 1004.558594 1442.648438 1028.140625 1402 C 1054.019531 1357.390625 1068.839844 1305.519531 1068.839844 1250.160156 C 1068.839844 1194.800781 1054.019531 1142.929688 1028.140625 1098.320312 " /><path fill-rule="evenodd" fill="rgb(100%, 100%, 100%)" fill-opacity="1" d="M 769.378906 1226.210938 C 756.148438 1226.210938 745.425781 1236.929688 745.425781 1250.160156 C 745.425781 1263.390625 756.148438 1274.109375 769.378906 1274.109375 C 782.605469 1274.109375 793.324219 1263.390625 793.324219 1250.160156 C 793.324219 1236.929688 782.605469 1226.210938 769.378906 1226.210938 " /><path fill-rule="nonzero" fill="rgb(100%, 100%, 100%)" fill-opacity="1" d="M 392.144531 2127.621094 L 429.730469 2127.621094 C 427.628906 2118.28125 422.902344 2109.9375 416.367188 2103.398438 C 409.832031 2096.867188 401.484375 2092.140625 392.144531 2090.035156 Z M 441.929688 2149.585938 L 370.179688 2149.585938 L 370.179688 2066.855469 L 381.164062 2066.855469 C 400.972656 2066.855469 418.910156 2074.890625 431.894531 2087.871094 C 444.878906 2100.855469 452.910156 2118.792969 452.910156 2138.605469 L 452.910156 2149.585938 L 441.929688 2149.585938 " /><path fill-rule="nonzero" fill="rgb(100%, 100%, 100%)" fill-opacity="1" d="M 3109.699219 372.699219 L 1761.898438 372.699219 L 1761.898438 2127.621094 L 3109.699219 2127.621094 Z M 1750.921875 350.730469 L 3131.660156 350.730469 L 3131.660156 2149.589844 C 2667.75 2149.519531 2203.851562 2149.519531 1739.941406 2149.589844 L 1739.941406 350.730469 L 1750.921875 350.730469 " /><path fill-rule="nonzero" fill="rgb(100%, 100%, 100%)" fill-opacity="1" d="M 3109.699219 372.699219 L 3072.109375 372.699219 C 3074.210938 382.039062 3078.941406 390.378906 3085.46875 396.921875 C 3092.011719 403.449219 3100.359375 408.179688 3109.699219 410.28125 Z M 3059.910156 350.730469 L 3131.660156 350.730469 L 3131.660156 433.460938 L 3120.679688 433.460938 C 3100.871094 433.460938 3082.929688 425.429688 3069.949219 412.449219 C 3056.960938 399.460938 3048.929688 381.519531 3048.929688 361.710938 L 3048.929688 350.730469 L 3059.910156 350.730469 " /><path fill-rule="nonzero" fill="rgb(100%, 100%, 100%)" fill-opacity="1" d="M 1761.898438 947.320312 L 1761.898438 1552.996094 C 1841.21875 1550.171875 1912.769531 1516.867188 1965.199219 1464.441406 C 2020.039062 1409.601562 2053.960938 1333.839844 2053.960938 1250.160156 C 2053.960938 1166.480469 2020.039062 1090.71875 1965.199219 1035.878906 C 1912.769531 983.449219 1841.21875 950.148438 1761.898438 947.320312 Z M 1739.941406 1564.179688 L 1739.941406 925.160156 L 1750.921875 925.160156 C 1840.660156 925.160156 1921.910156 961.539062 1980.730469 1020.351562 C 2039.539062 1079.171875 2075.921875 1160.421875 2075.921875 1250.160156 C 2075.921875 1339.898438 2039.539062 1421.148438 1980.730469 1479.96875 C 1921.910156 1538.78125 1840.660156 1575.160156 1750.921875 1575.160156 L 1739.941406 1575.160156 L 1739.941406 1564.179688 " /><path fill-rule="nonzero" fill="rgb(100%, 100%, 100%)" fill-opacity="1" d="M 3109.699219 628.28125 L 2591.171875 628.28125 L 2591.171875 1872.039062 L 3109.699219 1872.039062 Z M 2580.191406 606.320312 L 3131.660156 606.320312 L 3131.660156 1894.003906 L 2569.210938 1894.003906 L 2569.210938 606.320312 L 2580.191406 606.320312 " /><path fill-rule="nonzero" fill="rgb(100%, 100%, 100%)" fill-opacity="1" d="M 3109.699219 969.808594 L 2932.699219 969.808594 L 2932.699219 1530.507812 L 3109.699219 1530.507812 Z M 2921.71875 947.851562 L 3131.660156 947.851562 L 3131.660156 1552.472656 L 2910.738281 1552.472656 L 2910.738281 947.851562 L 2921.71875 947.851562 " /><path fill-rule="nonzero" fill="rgb(100%, 100%, 100%)" fill-opacity="1" d="M 3172.578125 1121.109375 L 3131.660156 1121.109375 L 3131.660156 1379.210938 L 3172.578125 1379.210938 Z M 3120.679688 1099.148438 L 3194.550781 1099.148438 L 3194.550781 1401.171875 L 3109.699219 1401.171875 L 3109.699219 1099.148438 L 3120.679688 1099.148438 " /><path fill-rule="nonzero" fill="rgb(100%, 100%, 100%)" fill-opacity="1" d="M 2569.210938 997.128906 C 2530.070312 1022.988281 2497.28125 1057.671875 2473.699219 1098.320312 C 2447.820312 1142.929688 2433 1194.800781 2433 1250.160156 C 2433 1305.519531 2447.820312 1357.390625 2473.699219 1402 C 2497.28125 1442.648438 2530.070312 1477.328125 2569.210938 1503.1875 Z M 2454.738281 1087.339844 C 2483.511719 1037.738281 2525.011719 996.460938 2574.738281 967.96875 L 2591.171875 958.558594 L 2591.171875 1541.765625 L 2574.738281 1532.351562 C 2525.011719 1503.863281 2483.511719 1462.578125 2454.738281 1412.980469 C 2426.949219 1365.070312 2411.039062 1309.449219 2411.039062 1250.160156 C 2411.039062 1190.871094 2426.949219 1135.25 2454.738281 1087.339844 " /><path fill-rule="evenodd" fill="rgb(100%, 100%, 100%)" fill-opacity="1" d="M 2732.46875 1226.210938 C 2745.691406 1226.210938 2756.421875 1236.929688 2756.421875 1250.160156 C 2756.421875 1263.390625 2745.691406 1274.109375 2732.46875 1274.109375 C 2719.238281 1274.109375 2708.519531 1263.390625 2708.519531 1250.160156 C 2708.519531 1236.929688 2719.238281 1226.210938 2732.46875 1226.210938 " /><path fill-rule="nonzero" fill="rgb(100%, 100%, 100%)" fill-opacity="1" d="M 3120.679688 2149.585938 L 3048.929688 2149.585938 L 3048.929688 2138.605469 C 3048.929688 2118.792969 3056.960938 2100.855469 3069.949219 2087.871094 C 3082.929688 2074.890625 3100.871094 2066.855469 3120.679688 2066.855469 L 3131.660156 2066.855469 L 3131.660156 2149.585938 Z M 3072.109375 2127.621094 L 3109.699219 2127.621094 L 3109.699219 2090.035156 C 3100.359375 2092.140625 3092.011719 2096.867188 3085.46875 2103.398438 C 3078.941406 2109.9375 3074.210938 2118.28125 3072.109375 2127.621094 " /></g></svg>