<?xml version="1.0" encoding="UTF-8"?>
<!DOCTYPE svg PUBLIC "-//W3C//DTD SVG 1.1//EN" "http://www.w3.org/Graphics/SVG/1.1/DTD/svg11.dtd">
<svg xmlns="http://www.w3.org/2000/svg" version="1.1" width="3501px" height="2501px" style="shape-rendering:geometricPrecision; text-rendering:geometricPrecision; image-rendering:optimizeQuality; fill-rule:evenodd; clip-rule:evenodd" xmlns:xlink="http://www.w3.org/1999/xlink">
<g><path style="opacity:0.998" fill="#00b13a" d="M 368.5,186.5 C 422.833,186.5 477.167,186.5 531.5,186.5C 531.5,240.833 531.5,295.167 531.5,349.5C 477.331,349.168 423.331,349.501 369.5,350.5C 369.833,600.001 369.5,849.334 368.5,1098.5C 368.5,794.5 368.5,490.5 368.5,186.5 Z"/></g>
<g><path style="opacity:0.998" fill="#00b13a" d="M 693.5,186.5 C 747.833,186.5 802.167,186.5 856.5,186.5C 856.5,240.833 856.5,295.167 856.5,349.5C 802.167,349.5 747.833,349.5 693.5,349.5C 693.5,295.167 693.5,240.833 693.5,186.5 Z"/></g>
<g><path style="opacity:0.998" fill="#00b13a" d="M 1018.5,186.5 C 1072.83,186.5 1127.17,186.5 1181.5,186.5C 1181.5,240.833 1181.5,295.167 1181.5,349.5C 1127.17,349.5 1072.83,349.5 1018.5,349.5C 1018.5,295.167 1018.5,240.833 1018.5,186.5 Z"/></g>
<g><path style="opacity:0.998" fill="#00b13a" d="M 1343.5,186.5 C 1397.83,186.5 1452.17,186.5 1506.5,186.5C 1506.5,240.833 1506.5,295.167 1506.5,349.5C 1452.17,349.5 1397.83,349.5 1343.5,349.5C 1343.5,295.167 1343.5,240.833 1343.5,186.5 Z"/></g>
<g><path style="opacity:0.998" fill="#00b13b" d="M 1669.5,186.5 C 1723.5,186.5 1777.5,186.5 1831.5,186.5C 1831.5,240.833 1831.5,295.167 1831.5,349.5C 1777.5,349.5 1723.5,349.5 1669.5,349.5C 1669.5,295.167 1669.5,240.833 1669.5,186.5 Z"/></g>
<g><path style="opacity:0.998" fill="#00b13b" d="M 1994.5,186.5 C 2048.5,186.5 2102.5,186.5 2156.5,186.5C 2156.5,240.833 2156.5,295.167 2156.5,349.5C 2102.5,349.5 2048.5,349.5 1994.5,349.5C 1994.5,295.167 1994.5,240.833 1994.5,186.5 Z"/></g>
<g><path style="opacity:0.998" fill="#00b13b" d="M 2319.5,186.5 C 2373.5,186.5 2427.5,186.5 2481.5,186.5C 2481.5,240.833 2481.5,295.167 2481.5,349.5C 2427.5,349.5 2373.5,349.5 2319.5,349.5C 2319.5,295.167 2319.5,240.833 2319.5,186.5 Z"/></g>
<g><path style="opacity:0.998" fill="#00b13b" d="M 2644.5,186.5 C 2698.5,186.5 2752.5,186.5 2806.5,186.5C 2806.5,240.833 2806.5,295.167 2806.5,349.5C 2752.5,349.5 2698.5,349.5 2644.5,349.5C 2644.5,295.167 2644.5,240.833 2644.5,186.5 Z"/></g>
<g><path style="opacity:0.998" fill="#00b13b" d="M 2969.5,186.5 C 3023.5,186.5 3077.5,186.5 3131.5,186.5C 3131.5,240.833 3131.5,295.167 3131.5,349.5C 3077.5,349.5 3023.5,349.5 2969.5,349.5C 2969.5,295.167 2969.5,240.833 2969.5,186.5 Z"/></g>
<g><path style="opacity:0.467" fill="#00a537" d="M 206.5,186.5 C 206.5,895.167 206.5,1603.83 206.5,2312.5C 260.5,2312.5 314.5,2312.5 368.5,2312.5C 368.167,2008.67 368.5,1705 369.5,1401.5C 369.5,1650.83 369.5,1900.17 369.5,2149.5C 369.5,2204.17 369.5,2258.83 369.5,2313.5C 314.833,2313.5 260.167,2313.5 205.5,2313.5C 205.167,1604.33 205.5,895.333 206.5,186.5 Z"/></g>
<g><path style="opacity:1" fill="#009933" d="M 206.5,186.5 C 260.5,186.5 314.5,186.5 368.5,186.5C 368.5,490.5 368.5,794.5 368.5,1098.5C 347.833,1098.5 327.167,1098.5 306.5,1098.5C 306.5,1199.17 306.5,1299.83 306.5,1400.5C 327.673,1400.17 348.673,1400.5 369.5,1401.5C 368.5,1705 368.167,2008.67 368.5,2312.5C 314.5,2312.5 260.5,2312.5 206.5,2312.5C 206.5,1603.83 206.5,895.167 206.5,186.5 Z"/></g>
<g><path style="opacity:1" fill="#009933" d="M 531.5,186.5 C 585.5,186.5 639.5,186.5 693.5,186.5C 693.5,240.833 693.5,295.167 693.5,349.5C 639.5,349.5 585.5,349.5 531.5,349.5C 531.5,295.167 531.5,240.833 531.5,186.5 Z"/></g>
<g><path style="opacity:1" fill="#009933" d="M 856.5,186.5 C 910.5,186.5 964.5,186.5 1018.5,186.5C 1018.5,240.833 1018.5,295.167 1018.5,349.5C 964.5,349.5 910.5,349.5 856.5,349.5C 856.5,295.167 856.5,240.833 856.5,186.5 Z"/></g>
<g><path style="opacity:1" fill="#009933" d="M 1181.5,186.5 C 1235.5,186.5 1289.5,186.5 1343.5,186.5C 1343.5,240.833 1343.5,295.167 1343.5,349.5C 1289.5,349.5 1235.5,349.5 1181.5,349.5C 1181.5,295.167 1181.5,240.833 1181.5,186.5 Z"/></g>
<g><path style="opacity:1" fill="#139d3a" d="M 1506.5,186.5 C 1560.83,186.5 1615.17,186.5 1669.5,186.5C 1669.5,240.833 1669.5,295.167 1669.5,349.5C 1723.5,349.5 1777.5,349.5 1831.5,349.5C 1885.83,349.5 1940.17,349.5 1994.5,349.5C 2048.5,349.5 2102.5,349.5 2156.5,349.5C 2210.83,349.5 2265.17,349.5 2319.5,349.5C 2373.5,349.5 2427.5,349.5 2481.5,349.5C 2535.83,349.5 2590.17,349.5 2644.5,349.5C 2698.5,349.5 2752.5,349.5 2806.5,349.5C 2860.83,349.5 2915.17,349.5 2969.5,349.5C 3023.5,349.5 3077.5,349.5 3131.5,349.5C 3131.5,349.833 3131.5,350.167 3131.5,350.5C 2210.83,350.5 1290.17,350.5 369.5,350.5C 423.331,349.501 477.331,349.168 531.5,349.5C 585.5,349.5 639.5,349.5 693.5,349.5C 747.833,349.5 802.167,349.5 856.5,349.5C 910.5,349.5 964.5,349.5 1018.5,349.5C 1072.83,349.5 1127.17,349.5 1181.5,349.5C 1235.5,349.5 1289.5,349.5 1343.5,349.5C 1397.83,349.5 1452.17,349.5 1506.5,349.5C 1506.5,295.167 1506.5,240.833 1506.5,186.5 Z"/></g>
<g><path style="opacity:1" fill="#009933" d="M 1831.5,186.5 C 1885.83,186.5 1940.17,186.5 1994.5,186.5C 1994.5,240.833 1994.5,295.167 1994.5,349.5C 1940.17,349.5 1885.83,349.5 1831.5,349.5C 1831.5,295.167 1831.5,240.833 1831.5,186.5 Z"/></g>
<g><path style="opacity:1" fill="#009933" d="M 2156.5,186.5 C 2210.83,186.5 2265.17,186.5 2319.5,186.5C 2319.5,240.833 2319.5,295.167 2319.5,349.5C 2265.17,349.5 2210.83,349.5 2156.5,349.5C 2156.5,295.167 2156.5,240.833 2156.5,186.5 Z"/></g>
<g><path style="opacity:1" fill="#009933" d="M 2481.5,186.5 C 2535.83,186.5 2590.17,186.5 2644.5,186.5C 2644.5,240.833 2644.5,295.167 2644.5,349.5C 2590.17,349.5 2535.83,349.5 2481.5,349.5C 2481.5,295.167 2481.5,240.833 2481.5,186.5 Z"/></g>
<g><path style="opacity:1" fill="#009933" d="M 2806.5,186.5 C 2860.83,186.5 2915.17,186.5 2969.5,186.5C 2969.5,240.833 2969.5,295.167 2969.5,349.5C 2915.17,349.5 2860.83,349.5 2806.5,349.5C 2806.5,295.167 2806.5,240.833 2806.5,186.5 Z"/></g>
<g><path style="opacity:1" fill="#009933" d="M 3132.5,2312.5 C 3131.5,2258.34 3131.17,2204 3131.5,2149.5C 3131.5,2064.17 3131.5,1978.83 3131.5,1893.5C 3131.5,1729.5 3131.5,1565.5 3131.5,1401.5C 3152.5,1401.5 3173.5,1401.5 3194.5,1401.5C 3194.83,1300.33 3194.5,1199.33 3193.5,1098.5C 3173.17,1098.5 3152.83,1098.5 3132.5,1098.5C 3132.5,794.833 3132.5,491.167 3132.5,187.5C 3186.5,187.5 3240.5,187.5 3294.5,187.5C 3294.5,895.833 3294.5,1604.17 3294.5,2312.5C 3240.5,2312.5 3186.5,2312.5 3132.5,2312.5 Z"/></g>
<g><path style="opacity:0.227" fill="#00a335" d="M 3131.5,186.5 C 3186.17,186.5 3240.83,186.5 3295.5,186.5C 3295.5,895.5 3295.5,1604.5 3295.5,2313.5C 3241.17,2313.5 3186.83,2313.5 3132.5,2313.5C 3132.5,2313.17 3132.5,2312.83 3132.5,2312.5C 3186.5,2312.5 3240.5,2312.5 3294.5,2312.5C 3294.5,1604.17 3294.5,895.833 3294.5,187.5C 3240.5,187.5 3186.5,187.5 3132.5,187.5C 3132.5,491.167 3132.5,794.833 3132.5,1098.5C 3131.5,849.334 3131.17,600.001 3131.5,350.5C 3131.5,350.167 3131.5,349.833 3131.5,349.5C 3131.5,295.167 3131.5,240.833 3131.5,186.5 Z"/></g>
<g><path style="opacity:1" fill="#fdfefd" d="M 369.5,350.5 C 1290.17,350.5 2210.83,350.5 3131.5,350.5C 3131.17,600.001 3131.5,849.334 3132.5,1098.5C 3152.83,1098.5 3173.17,1098.5 3193.5,1098.5C 3193.5,1199.17 3193.5,1299.83 3193.5,1400.5C 3172.66,1400.17 3151.99,1400.5 3131.5,1401.5C 3131.5,1565.5 3131.5,1729.5 3131.5,1893.5C 3130.5,1978.33 3130.17,2063.33 3130.5,2148.5C 2674,2148.17 2217.67,2148.5 1761.5,2149.5C 1730.83,2149.5 1700.17,2149.5 1669.5,2149.5C 1615.17,2149.5 1560.83,2149.5 1506.5,2149.5C 1452.17,2149.5 1397.83,2149.5 1343.5,2149.5C 1289.5,2149.5 1235.5,2149.5 1181.5,2149.5C 1127.17,2149.5 1072.83,2149.5 1018.5,2149.5C 964.5,2149.5 910.5,2149.5 856.5,2149.5C 802.5,2149.5 748.5,2149.5 694.5,2149.5C 694.167,2149.5 693.833,2149.5 693.5,2149.5C 639.5,2149.5 585.5,2149.5 531.5,2149.5C 531.167,2149.5 530.833,2149.5 530.5,2149.5C 476.833,2149.5 423.167,2149.5 369.5,2149.5C 369.5,1900.17 369.5,1650.83 369.5,1401.5C 348.673,1400.5 327.673,1400.17 306.5,1400.5C 306.5,1299.83 306.5,1199.17 306.5,1098.5C 327.167,1098.5 347.833,1098.5 368.5,1098.5C 369.5,849.334 369.833,600.001 369.5,350.5 Z"/></g>
<g><path style="opacity:1" fill="#0ab33e" d="M 391.5,372.5 C 403.833,372.5 416.167,372.5 428.5,372.5C 423.847,392.486 411.514,404.819 391.5,409.5C 391.5,397.167 391.5,384.833 391.5,372.5 Z"/></g>
<g><path style="opacity:1" fill="#00b13b" d="M 531.5,372.5 C 531.5,450.167 531.5,527.833 531.5,605.5C 485.167,605.5 438.833,605.5 392.5,605.5C 392.5,547.833 392.5,490.167 392.5,432.5C 393.791,432.737 394.791,432.404 395.5,431.5C 426.243,423.589 444.91,404.089 451.5,373C 478.165,372.5 504.831,372.333 531.5,372.5 Z"/></g>
<g><path style="opacity:1" fill="#009932" d="M 531.5,372.5 C 585.5,372.5 639.5,372.5 693.5,372.5C 693.5,450.167 693.5,527.833 693.5,605.5C 639.5,605.5 585.5,605.5 531.5,605.5C 531.5,527.833 531.5,450.167 531.5,372.5 Z"/></g>
<g><path style="opacity:1" fill="#00b13a" d="M 693.5,372.5 C 747.833,372.5 802.167,372.5 856.5,372.5C 856.5,450.167 856.5,527.833 856.5,605.5C 802.167,605.5 747.833,605.5 693.5,605.5C 693.5,527.833 693.5,450.167 693.5,372.5 Z"/></g>
<g><path style="opacity:1" fill="#009933" d="M 856.5,372.5 C 910.5,372.5 964.5,372.5 1018.5,372.5C 1018.5,596.833 1018.5,821.167 1018.5,1045.5C 993.778,1015.83 965.112,990.832 932.5,970.5C 932.5,848.833 932.5,727.167 932.5,605.5C 907.167,605.5 881.833,605.5 856.5,605.5C 856.5,527.833 856.5,450.167 856.5,372.5 Z"/></g>
<g><path style="opacity:1" fill="#00b13b" d="M 1018.5,372.5 C 1072.83,372.5 1127.17,372.5 1181.5,372.5C 1181.5,957.167 1181.5,1541.83 1181.5,2126.5C 1127.17,2126.5 1072.83,2126.5 1018.5,2126.5C 1018.5,1902.17 1018.5,1677.83 1018.5,1453.5C 1077.07,1377.57 1099.57,1291.9 1086,1196.5C 1076.12,1140.3 1053.62,1089.97 1018.5,1045.5C 1018.5,821.167 1018.5,596.833 1018.5,372.5 Z"/></g>
<g><path style="opacity:1" fill="#009933" d="M 1181.5,372.5 C 1235.5,372.5 1289.5,372.5 1343.5,372.5C 1343.5,957.167 1343.5,1541.83 1343.5,2126.5C 1289.5,2126.5 1235.5,2126.5 1181.5,2126.5C 1181.5,1541.83 1181.5,957.167 1181.5,372.5 Z"/></g>
<g><path style="opacity:1" fill="#00b13b" d="M 1343.5,372.5 C 1397.83,372.5 1452.17,372.5 1506.5,372.5C 1506.5,593.167 1506.5,813.833 1506.5,1034.5C 1432.66,1122.78 1409.49,1223.12 1437,1335.5C 1450.31,1384.13 1473.47,1427.13 1506.5,1464.5C 1506.5,1685.17 1506.5,1905.83 1506.5,2126.5C 1452.17,2126.5 1397.83,2126.5 1343.5,2126.5C 1343.5,1541.83 1343.5,957.167 1343.5,372.5 Z"/></g>
<g><path style="opacity:1" fill="#009933" d="M 1506.5,372.5 C 1560.83,372.5 1615.17,372.5 1669.5,372.5C 1669.5,559.833 1669.5,747.167 1669.5,934.5C 1605.11,951.842 1550.78,985.175 1506.5,1034.5C 1506.5,813.833 1506.5,593.167 1506.5,372.5 Z"/></g>
<g><path style="opacity:1" fill="#00b23b" d="M 1669.5,372.5 C 1692.5,372.5 1715.5,372.5 1738.5,372.5C 1738.5,556.5 1738.5,740.5 1738.5,924.5C 1736.26,924.205 1734.26,924.539 1732.5,925.5C 1711.2,926.439 1690.2,929.439 1669.5,934.5C 1669.5,747.167 1669.5,559.833 1669.5,372.5 Z"/></g>
<g><path style="opacity:1" fill="#23bc54" d="M 1738.5,372.5 C 1739.5,556.666 1739.83,740.999 1739.5,925.5C 1737.17,925.5 1734.83,925.5 1732.5,925.5C 1734.26,924.539 1736.26,924.205 1738.5,924.5C 1738.5,740.5 1738.5,556.5 1738.5,372.5 Z"/></g>
<g><path style="opacity:1" fill="#00b23b" d="M 1831.5,372.5 C 1831.5,559.833 1831.5,747.167 1831.5,934.5C 1808.47,929.258 1785.14,926.258 1761.5,925.5C 1761.5,741.167 1761.5,556.833 1761.5,372.5C 1784.83,372.5 1808.17,372.5 1831.5,372.5 Z"/></g>
<g><path style="opacity:1" fill="#009933" d="M 1831.5,372.5 C 1885.83,372.5 1940.17,372.5 1994.5,372.5C 1994.5,593.167 1994.5,813.833 1994.5,1034.5C 1949.93,985.671 1895.6,952.337 1831.5,934.5C 1831.5,747.167 1831.5,559.833 1831.5,372.5 Z"/></g>
<g><path style="opacity:1" fill="#00b23b" d="M 1994.5,372.5 C 2048.5,372.5 2102.5,372.5 2156.5,372.5C 2156.5,957.167 2156.5,1541.83 2156.5,2126.5C 2102.5,2126.5 2048.5,2126.5 1994.5,2126.5C 1994.5,1905.83 1994.5,1685.17 1994.5,1464.5C 2060.37,1386.33 2085.87,1296.33 2071,1194.5C 2059.62,1134.08 2034.12,1080.75 1994.5,1034.5C 1994.5,813.833 1994.5,593.167 1994.5,372.5 Z"/></g>
<g><path style="opacity:1" fill="#009933" d="M 2156.5,372.5 C 2210.83,372.5 2265.17,372.5 2319.5,372.5C 2319.5,957.167 2319.5,1541.83 2319.5,2126.5C 2265.17,2126.5 2210.83,2126.5 2156.5,2126.5C 2156.5,1541.83 2156.5,957.167 2156.5,372.5 Z"/></g>
<g><path style="opacity:1" fill="#00b23b" d="M 2319.5,372.5 C 2373.5,372.5 2427.5,372.5 2481.5,372.5C 2481.5,597.167 2481.5,821.833 2481.5,1046.5C 2409.65,1141.89 2392.48,1246.56 2430,1360.5C 2442.29,1394.11 2459.46,1424.77 2481.5,1452.5C 2481.5,1677.17 2481.5,1901.83 2481.5,2126.5C 2427.5,2126.5 2373.5,2126.5 2319.5,2126.5C 2319.5,1541.83 2319.5,957.167 2319.5,372.5 Z"/></g>
<g><path style="opacity:1" fill="#009933" d="M 2481.5,372.5 C 2535.83,372.5 2590.17,372.5 2644.5,372.5C 2644.5,450.167 2644.5,527.833 2644.5,605.5C 2619.17,605.5 2593.83,605.5 2568.5,605.5C 2568.5,727.167 2568.5,848.833 2568.5,970.5C 2535.23,990.759 2506.23,1016.09 2481.5,1046.5C 2481.5,821.833 2481.5,597.167 2481.5,372.5 Z"/></g>
<g><path style="opacity:1" fill="#00b23a" d="M 2644.5,372.5 C 2698.5,372.5 2752.5,372.5 2806.5,372.5C 2806.5,450.167 2806.5,527.833 2806.5,605.5C 2752.5,605.5 2698.5,605.5 2644.5,605.5C 2644.5,527.833 2644.5,450.167 2644.5,372.5 Z"/></g>
<g><path style="opacity:1" fill="#009933" d="M 2806.5,372.5 C 2860.83,372.5 2915.17,372.5 2969.5,372.5C 2969.5,450.167 2969.5,527.833 2969.5,605.5C 2915.17,605.5 2860.83,605.5 2806.5,605.5C 2806.5,527.833 2806.5,450.167 2806.5,372.5 Z"/></g>
<g><path style="opacity:1" fill="#01b23b" d="M 2969.5,372.5 C 2996.17,372.167 3022.84,372.5 3049.5,373.5C 3056.87,405.705 3076.71,425.372 3109,432.5C 3109.5,490.166 3109.67,547.832 3109.5,605.5C 3062.83,605.5 3016.17,605.5 2969.5,605.5C 2969.5,527.833 2969.5,450.167 2969.5,372.5 Z"/></g>
<g><path style="opacity:1" fill="#06b23c" d="M 3071.5,373.5 C 3083.66,372.505 3095.99,372.171 3108.5,372.5C 3108.5,384.833 3108.5,397.167 3108.5,409.5C 3089.55,404.214 3077.22,392.214 3071.5,373.5 Z"/></g>
<g><path style="opacity:1" fill="#23bc55" d="M 395.5,431.5 C 394.791,432.404 393.791,432.737 392.5,432.5C 392.5,490.167 392.5,547.833 392.5,605.5C 392.167,605.5 391.833,605.5 391.5,605.5C 391.5,547.5 391.5,489.5 391.5,431.5C 392.833,431.5 394.167,431.5 395.5,431.5 Z"/></g>
<g><path style="opacity:1" fill="#a7ddb9" d="M 391.5,605.5 C 391.833,605.5 392.167,605.5 392.5,605.5C 438.833,605.5 485.167,605.5 531.5,605.5C 585.5,605.5 639.5,605.5 693.5,605.5C 747.833,605.5 802.167,605.5 856.5,605.5C 881.833,605.5 907.167,605.5 932.5,605.5C 932.5,727.167 932.5,848.833 932.5,970.5C 931.5,849.334 931.167,728.001 931.5,606.5C 751.333,606.833 571.333,606.5 391.5,605.5 Z"/></g>
<g><path style="opacity:1" fill="#bfe7cc" d="M 2644.5,605.5 C 2698.5,605.5 2752.5,605.5 2806.5,605.5C 2860.83,605.5 2915.17,605.5 2969.5,605.5C 3016.17,605.5 3062.83,605.5 3109.5,605.5C 2929.67,606.5 2749.67,606.833 2569.5,606.5C 2569.83,728.001 2569.5,849.334 2568.5,970.5C 2568.5,848.833 2568.5,727.167 2568.5,605.5C 2593.83,605.5 2619.17,605.5 2644.5,605.5 Z"/></g>
<g><path style="opacity:1" fill="#41c46c" d="M 856.5,627.5 C 856.5,627.833 856.5,628.167 856.5,628.5C 802.167,628.5 747.833,628.5 693.5,628.5C 639.5,628.5 585.5,628.5 531.5,628.5C 485.167,628.5 438.833,628.5 392.5,628.5C 392.5,734.5 392.5,840.5 392.5,946.5C 438.833,946.5 485.167,946.5 531.5,946.5C 531.5,946.833 531.5,947.167 531.5,947.5C 484.833,947.5 438.167,947.5 391.5,947.5C 391.5,840.833 391.5,734.167 391.5,627.5C 546.5,627.5 701.5,627.5 856.5,627.5 Z"/></g>
<g><path style="opacity:1" fill="#00b13a" d="M 531.5,628.5 C 531.5,734.5 531.5,840.5 531.5,946.5C 485.167,946.5 438.833,946.5 392.5,946.5C 392.5,840.5 392.5,734.5 392.5,628.5C 438.833,628.5 485.167,628.5 531.5,628.5 Z"/></g>
<g><path style="opacity:1" fill="#009933" d="M 531.5,628.5 C 585.5,628.5 639.5,628.5 693.5,628.5C 693.5,1042.83 693.5,1457.17 693.5,1871.5C 639.5,1871.5 585.5,1871.5 531.5,1871.5C 531.5,1765.17 531.5,1658.83 531.5,1552.5C 551.34,1552.83 571.007,1552.5 590.5,1551.5C 590.5,1350.17 590.5,1148.83 590.5,947.5C 570.833,947.5 551.167,947.5 531.5,947.5C 531.5,947.167 531.5,946.833 531.5,946.5C 531.5,840.5 531.5,734.5 531.5,628.5 Z"/></g>
<g><path style="opacity:1" fill="#00b13a" d="M 693.5,628.5 C 747.833,628.5 802.167,628.5 856.5,628.5C 856.5,1042.83 856.5,1457.17 856.5,1871.5C 802.167,1871.5 747.833,1871.5 693.5,1871.5C 693.5,1457.17 693.5,1042.83 693.5,628.5 Z"/></g>
<g><path style="opacity:1" fill="#009933" d="M 856.5,628.5 C 874.167,628.5 891.833,628.5 909.5,628.5C 909.5,1042.83 909.5,1457.17 909.5,1871.5C 891.833,1871.5 874.167,1871.5 856.5,1871.5C 856.5,1457.17 856.5,1042.83 856.5,628.5 Z"/></g>
<g><path style="opacity:1" fill="#5ebe7d" d="M 856.5,628.5 C 856.5,628.167 856.5,627.833 856.5,627.5C 874.5,627.5 892.5,627.5 910.5,627.5C 910.833,1042.33 910.5,1457 909.5,1871.5C 909.5,1457.17 909.5,1042.83 909.5,628.5C 891.833,628.5 874.167,628.5 856.5,628.5 Z"/></g>
<g><path style="opacity:1" fill="#4bba6d" d="M 3108.5,947.5 C 3108.5,841.167 3108.5,734.833 3108.5,628.5C 3062.17,628.5 3015.83,628.5 2969.5,628.5C 2915.17,628.5 2860.83,628.5 2806.5,628.5C 2752.5,628.5 2698.5,628.5 2644.5,628.5C 2626.83,628.5 2609.17,628.5 2591.5,628.5C 2591.5,1042.83 2591.5,1457.17 2591.5,1871.5C 2590.5,1457 2590.17,1042.33 2590.5,627.5C 2763.5,627.5 2936.5,627.5 3109.5,627.5C 3109.83,734.335 3109.5,841.001 3108.5,947.5 Z"/></g>
<g><path style="opacity:1" fill="#009933" d="M 2644.5,628.5 C 2644.5,1042.83 2644.5,1457.17 2644.5,1871.5C 2626.83,1871.5 2609.17,1871.5 2591.5,1871.5C 2591.5,1457.17 2591.5,1042.83 2591.5,628.5C 2609.17,628.5 2626.83,628.5 2644.5,628.5 Z"/></g>
<g><path style="opacity:1" fill="#00b23b" d="M 2644.5,628.5 C 2698.5,628.5 2752.5,628.5 2806.5,628.5C 2806.5,1042.83 2806.5,1457.17 2806.5,1871.5C 2752.5,1871.5 2698.5,1871.5 2644.5,1871.5C 2644.5,1457.17 2644.5,1042.83 2644.5,628.5 Z"/></g>
<g><path style="opacity:1" fill="#009933" d="M 2806.5,628.5 C 2860.83,628.5 2915.17,628.5 2969.5,628.5C 2969.5,734.833 2969.5,841.167 2969.5,947.5C 2949.83,947.5 2930.17,947.5 2910.5,947.5C 2910.5,1148.83 2910.5,1350.17 2910.5,1551.5C 2929.99,1552.5 2949.66,1552.83 2969.5,1552.5C 2969.5,1658.83 2969.5,1765.17 2969.5,1871.5C 2915.17,1871.5 2860.83,1871.5 2806.5,1871.5C 2806.5,1457.17 2806.5,1042.83 2806.5,628.5 Z"/></g>
<g><path style="opacity:1" fill="#00b23b" d="M 2969.5,628.5 C 3015.83,628.5 3062.17,628.5 3108.5,628.5C 3108.5,734.833 3108.5,841.167 3108.5,947.5C 3062.17,947.5 3015.83,947.5 2969.5,947.5C 2969.5,841.167 2969.5,734.833 2969.5,628.5 Z"/></g>
<g><path style="opacity:1" fill="#01b23b" d="M 1732.5,947.5 C 1734.5,947.5 1736.5,947.5 1738.5,947.5C 1738.5,1036.83 1738.5,1126.17 1738.5,1215.5C 1720.06,1223.36 1712.23,1237.36 1715,1257.5C 1718.41,1270.58 1726.41,1279.58 1739,1284.5C 1739.5,1373.83 1739.67,1463.17 1739.5,1552.5C 1715.56,1551.91 1692.23,1548.24 1669.5,1541.5C 1669.5,1346.83 1669.5,1152.17 1669.5,957.5C 1690.05,951.564 1711.05,948.231 1732.5,947.5 Z"/></g>
<g><path style="opacity:1" fill="#40c46b" d="M 1732.5,947.5 C 1734.61,946.532 1736.94,946.198 1739.5,946.5C 1739.83,1036.33 1739.5,1126 1738.5,1215.5C 1738.5,1126.17 1738.5,1036.83 1738.5,947.5C 1736.5,947.5 1734.5,947.5 1732.5,947.5 Z"/></g>
<g><path style="opacity:1" fill="#00b23b" d="M 1831.5,957.5 C 1831.5,1152.17 1831.5,1346.83 1831.5,1541.5C 1808.63,1547.96 1785.3,1551.62 1761.5,1552.5C 1761.5,1462.83 1761.5,1373.17 1761.5,1283.5C 1774.58,1279.58 1782.75,1270.92 1786,1257.5C 1788.84,1237.5 1781,1223.5 1762.5,1215.5C 1761.5,1126.17 1761.17,1036.84 1761.5,947.5C 1785.28,947.856 1808.61,951.189 1831.5,957.5 Z"/></g>
<g><path style="opacity:1" fill="#009933" d="M 1669.5,957.5 C 1669.5,1152.17 1669.5,1346.83 1669.5,1541.5C 1612.34,1525.34 1563.84,1495.34 1524,1451.5C 1517.54,1444.22 1511.71,1436.56 1506.5,1428.5C 1506.5,1309.17 1506.5,1189.83 1506.5,1070.5C 1547.9,1014.48 1602.23,976.811 1669.5,957.5 Z"/></g>
<g><path style="opacity:1" fill="#009933" d="M 1831.5,957.5 C 1899.13,977.177 1953.8,1015.18 1995.5,1071.5C 1994.5,1190.33 1994.17,1309.33 1994.5,1428.5C 1953.21,1484.67 1898.88,1522.34 1831.5,1541.5C 1831.5,1346.83 1831.5,1152.17 1831.5,957.5 Z"/></g>
<g><path style="opacity:1" fill="#00b13a" d="M 392.5,969.5 C 438.833,969.5 485.167,969.5 531.5,969.5C 531.5,1156.17 531.5,1342.83 531.5,1529.5C 485.167,1529.5 438.833,1529.5 392.5,1529.5C 392.5,1342.83 392.5,1156.17 392.5,969.5 Z"/></g>
<g><path style="opacity:1" fill="#009932" d="M 531.5,969.5 C 543.833,969.5 556.167,969.5 568.5,969.5C 568.5,1156.17 568.5,1342.83 568.5,1529.5C 556.167,1529.5 543.833,1529.5 531.5,1529.5C 531.5,1342.83 531.5,1156.17 531.5,969.5 Z"/></g>
<g><path style="opacity:1" fill="#039933" d="M 2969.5,969.5 C 2969.5,1156.17 2969.5,1342.83 2969.5,1529.5C 3015.83,1529.5 3062.17,1529.5 3108.5,1529.5C 3050,1530.5 2991.34,1530.83 2932.5,1530.5C 2932.5,1343.5 2932.5,1156.5 2932.5,969.5C 2944.83,969.5 2957.17,969.5 2969.5,969.5 Z"/></g>
<g><path style="opacity:1" fill="#00b13a" d="M 2969.5,969.5 C 3015.83,969.5 3062.17,969.5 3108.5,969.5C 3108.5,1156.17 3108.5,1342.83 3108.5,1529.5C 3062.17,1529.5 3015.83,1529.5 2969.5,1529.5C 2969.5,1342.83 2969.5,1156.17 2969.5,969.5 Z"/></g>
<g><path style="opacity:1" fill="#f3faf6" d="M 2567.5,997.5 C 2567.56,996.957 2567.89,996.624 2568.5,996.5C 2569.83,1165.33 2569.83,1334 2568.5,1502.5C 2568.83,1334 2568.5,1165.67 2567.5,997.5 Z"/></g>
<g><path style="opacity:1" fill="#d9efe0" d="M 933.5,997.5 C 932.5,1165.67 932.167,1334 932.5,1502.5C 931.167,1334 931.167,1165.33 932.5,996.5C 933.107,996.624 933.44,996.957 933.5,997.5 Z"/></g>
<g><path style="opacity:1" fill="#009933" d="M 933.5,997.5 C 968.211,1020.54 996.878,1049.54 1019.5,1084.5C 1018.5,1194.67 1018.17,1305 1018.5,1415.5C 995.899,1450.43 967.233,1479.43 932.5,1502.5C 932.167,1334 932.5,1165.67 933.5,997.5 Z"/></g>
<g><path style="opacity:1" fill="#009933" d="M 2567.5,997.5 C 2568.5,1165.67 2568.83,1334 2568.5,1502.5C 2533.77,1479.43 2505.1,1450.43 2482.5,1415.5C 2482.83,1305 2482.5,1194.67 2481.5,1084.5C 2504.12,1049.54 2532.79,1020.54 2567.5,997.5 Z"/></g>
<g><path style="opacity:1" fill="#03b23b" d="M 1506.5,1070.5 C 1506.5,1189.83 1506.5,1309.17 1506.5,1428.5C 1474.34,1385.22 1455.17,1336.56 1449,1282.5C 1441.27,1204.23 1460.44,1133.57 1506.5,1070.5 Z"/></g>
<g><path style="opacity:1" fill="#03b23b" d="M 1995.5,1071.5 C 2053.68,1154.57 2068.18,1244.9 2039,1342.5C 2029.11,1373.95 2014.28,1402.62 1994.5,1428.5C 1994.17,1309.33 1994.5,1190.33 1995.5,1071.5 Z"/></g>
<g><path style="opacity:1" fill="#02a537" d="M 2481.5,1084.5 C 2482.5,1194.67 2482.83,1305 2482.5,1415.5C 2481.5,1415.17 2480.83,1414.5 2480.5,1413.5C 2481.83,1304.5 2481.83,1195.5 2480.5,1086.5C 2480.33,1085.51 2480.66,1084.84 2481.5,1084.5 Z"/></g>
<g><path style="opacity:1" fill="#03b23b" d="M 1019.5,1084.5 C 1072.87,1170.29 1082.7,1260.95 1049,1356.5C 1041.18,1377.52 1031.01,1397.19 1018.5,1415.5C 1018.17,1305 1018.5,1194.67 1019.5,1084.5 Z"/></g>
<g><path style="opacity:1" fill="#03b23c" d="M 2480.5,1086.5 C 2481.83,1195.5 2481.83,1304.5 2480.5,1413.5C 2432.41,1335.11 2420.57,1251.44 2445,1162.5C 2453.31,1135.35 2465.14,1110.02 2480.5,1086.5 Z"/></g>
<g><path style="opacity:1" fill="#039a34" d="M 328.5,1120.5 C 342.167,1120.5 355.833,1120.5 369.5,1120.5C 369.5,1206.5 369.5,1292.5 369.5,1378.5C 355.833,1378.5 342.167,1378.5 328.5,1378.5C 328.5,1292.5 328.5,1206.5 328.5,1120.5 Z"/></g>
<g><path style="opacity:1" fill="#079a35" d="M 3131.5,1120.5 C 3145.17,1120.5 3158.83,1120.5 3172.5,1120.5C 3172.5,1206.5 3172.5,1292.5 3172.5,1378.5C 3158.83,1378.5 3145.17,1378.5 3131.5,1378.5C 3131.5,1292.5 3131.5,1206.5 3131.5,1120.5 Z"/></g>
<g><path style="opacity:1" fill="#fcfefd" d="M 763.5,1225.5 C 783.351,1225.18 792.851,1234.85 792,1254.5C 787.612,1269.12 777.779,1275.29 762.5,1273C 746.417,1265.88 741.584,1254.05 748,1237.5C 752.02,1231.92 757.186,1227.92 763.5,1225.5 Z"/></g>
<g><path style="opacity:1" fill="#fcfefd" d="M 2726.5,1225.5 C 2747.11,1225.11 2756.61,1235.11 2755,1255.5C 2750.06,1269.39 2740.22,1275.23 2725.5,1273C 2711.55,1267.52 2706.05,1257.35 2709,1242.5C 2712.21,1234.01 2718.04,1228.34 2726.5,1225.5 Z"/></g>
<g><path style="opacity:1" fill="#5ebc78" d="M 3193.5,1098.5 C 3194.5,1199.33 3194.83,1300.33 3194.5,1401.5C 3173.5,1401.5 3152.5,1401.5 3131.5,1401.5C 3151.99,1400.5 3172.66,1400.17 3193.5,1400.5C 3193.5,1299.83 3193.5,1199.17 3193.5,1098.5 Z"/></g>
<g><path style="opacity:1" fill="#009933" d="M 1018.5,1453.5 C 1018.5,1677.83 1018.5,1902.17 1018.5,2126.5C 964.5,2126.5 910.5,2126.5 856.5,2126.5C 856.5,2048.83 856.5,1971.17 856.5,1893.5C 881.833,1893.5 907.167,1893.5 932.5,1893.5C 932.167,1771.5 932.5,1649.5 933.5,1527.5C 966.145,1507.86 994.478,1483.19 1018.5,1453.5 Z"/></g>
<g><path style="opacity:1" fill="#009933" d="M 2481.5,1452.5 C 2506.16,1482.66 2534.99,1508 2568,1528.5C 2568.5,1650.17 2568.67,1771.83 2568.5,1893.5C 2593.83,1893.5 2619.17,1893.5 2644.5,1893.5C 2644.5,1971.17 2644.5,2048.83 2644.5,2126.5C 2590.17,2126.5 2535.83,2126.5 2481.5,2126.5C 2481.5,1901.83 2481.5,1677.17 2481.5,1452.5 Z"/></g>
<g><path style="opacity:1" fill="#039934" d="M 1506.5,1464.5 C 1550.57,1514.17 1604.9,1547.5 1669.5,1564.5C 1669.5,1751.83 1669.5,1939.17 1669.5,2126.5C 1692.83,2126.5 1716.17,2126.5 1739.5,2126.5C 1310.17,2127.83 880.833,2127.83 451.5,2126.5C 478.167,2126.5 504.833,2126.5 531.5,2126.5C 585.5,2126.5 639.5,2126.5 693.5,2126.5C 747.833,2126.5 802.167,2126.5 856.5,2126.5C 910.5,2126.5 964.5,2126.5 1018.5,2126.5C 1072.83,2126.5 1127.17,2126.5 1181.5,2126.5C 1235.5,2126.5 1289.5,2126.5 1343.5,2126.5C 1397.83,2126.5 1452.17,2126.5 1506.5,2126.5C 1506.5,1905.83 1506.5,1685.17 1506.5,1464.5 Z"/></g>
<g><path style="opacity:1" fill="#039934" d="M 1994.5,1464.5 C 1994.5,1685.17 1994.5,1905.83 1994.5,2126.5C 2048.5,2126.5 2102.5,2126.5 2156.5,2126.5C 2210.83,2126.5 2265.17,2126.5 2319.5,2126.5C 2373.5,2126.5 2427.5,2126.5 2481.5,2126.5C 2535.83,2126.5 2590.17,2126.5 2644.5,2126.5C 2698.5,2126.5 2752.5,2126.5 2806.5,2126.5C 2860.83,2126.5 2915.17,2126.5 2969.5,2126.5C 2996.17,2126.5 3022.83,2126.5 3049.5,2126.5C 2620.17,2127.83 2190.83,2127.83 1761.5,2126.5C 1784.83,2126.5 1808.17,2126.5 1831.5,2126.5C 1831.5,1939.17 1831.5,1751.83 1831.5,1564.5C 1895.89,1547.16 1950.22,1513.82 1994.5,1464.5 Z"/></g>
<g><path style="opacity:1" fill="#73d392" d="M 392.5,969.5 C 392.5,1156.17 392.5,1342.83 392.5,1529.5C 438.833,1529.5 485.167,1529.5 531.5,1529.5C 543.833,1529.5 556.167,1529.5 568.5,1529.5C 509.669,1530.5 450.669,1530.83 391.5,1530.5C 391.167,1343.33 391.5,1156.33 392.5,969.5 Z"/></g>
<g><path style="opacity:1" fill="#53c979" d="M 590.5,1551.5 C 571.007,1552.5 551.34,1552.83 531.5,1552.5C 485.167,1552.5 438.833,1552.5 392.5,1552.5C 392.5,1658.83 392.5,1765.17 392.5,1871.5C 391.501,1765 391.167,1658.33 391.5,1551.5C 457.833,1551.5 524.167,1551.5 590.5,1551.5 Z"/></g>
<g><path style="opacity:1" fill="#00b13a" d="M 531.5,1552.5 C 531.5,1658.83 531.5,1765.17 531.5,1871.5C 485.167,1871.5 438.833,1871.5 392.5,1871.5C 392.5,1765.17 392.5,1658.83 392.5,1552.5C 438.833,1552.5 485.167,1552.5 531.5,1552.5 Z"/></g>
<g><path style="opacity:1" fill="#00b13a" d="M 2969.5,1552.5 C 3015.83,1552.5 3062.17,1552.5 3108.5,1552.5C 3108.5,1658.83 3108.5,1765.17 3108.5,1871.5C 3062.17,1871.5 3015.83,1871.5 2969.5,1871.5C 2969.5,1765.17 2969.5,1658.83 2969.5,1552.5 Z"/></g>
<g><path style="opacity:1" fill="#84d9a0" d="M 2910.5,1551.5 C 2976.83,1551.5 3043.17,1551.5 3109.5,1551.5C 3109.83,1658.33 3109.5,1765 3108.5,1871.5C 3108.5,1765.17 3108.5,1658.83 3108.5,1552.5C 3062.17,1552.5 3015.83,1552.5 2969.5,1552.5C 2949.66,1552.83 2929.99,1552.5 2910.5,1551.5 Z"/></g>
<g><path style="opacity:1" fill="#01b23b" d="M 1669.5,1564.5 C 1692.44,1570.4 1715.77,1573.74 1739.5,1574.5C 1739.5,1758.5 1739.5,1942.5 1739.5,2126.5C 1716.17,2126.5 1692.83,2126.5 1669.5,2126.5C 1669.5,1939.17 1669.5,1751.83 1669.5,1564.5 Z"/></g>
<g><path style="opacity:1" fill="#00b23b" d="M 1831.5,1564.5 C 1831.5,1751.83 1831.5,1939.17 1831.5,2126.5C 1808.17,2126.5 1784.83,2126.5 1761.5,2126.5C 1761.5,1942.5 1761.5,1758.5 1761.5,1574.5C 1785.17,1573.46 1808.5,1570.12 1831.5,1564.5 Z"/></g>
<g><path style="opacity:1" fill="#00b23b" d="M 531.5,1893.5 C 531.5,1971.17 531.5,2048.83 531.5,2126.5C 504.833,2126.5 478.167,2126.5 451.5,2126.5C 446.621,2100.92 432.287,2082.76 408.5,2072C 403.008,2069.78 397.341,2068.28 391.5,2067.5C 391.5,2009.5 391.5,1951.5 391.5,1893.5C 438.167,1893.5 484.833,1893.5 531.5,1893.5 Z"/></g>
<g><path style="opacity:1" fill="#009933" d="M 531.5,1893.5 C 585.5,1893.5 639.5,1893.5 693.5,1893.5C 693.5,1971.17 693.5,2048.83 693.5,2126.5C 639.5,2126.5 585.5,2126.5 531.5,2126.5C 531.5,2048.83 531.5,1971.17 531.5,1893.5 Z"/></g>
<g><path style="opacity:1" fill="#00b13a" d="M 693.5,1893.5 C 747.833,1893.5 802.167,1893.5 856.5,1893.5C 856.5,1971.17 856.5,2048.83 856.5,2126.5C 802.167,2126.5 747.833,2126.5 693.5,2126.5C 693.5,2048.83 693.5,1971.17 693.5,1893.5 Z"/></g>
<g><path style="opacity:1" fill="#00b23b" d="M 2644.5,1893.5 C 2698.5,1893.5 2752.5,1893.5 2806.5,1893.5C 2806.5,1971.17 2806.5,2048.83 2806.5,2126.5C 2752.5,2126.5 2698.5,2126.5 2644.5,2126.5C 2644.5,2048.83 2644.5,1971.17 2644.5,1893.5 Z"/></g>
<g><path style="opacity:1" fill="#009933" d="M 2806.5,1893.5 C 2860.83,1893.5 2915.17,1893.5 2969.5,1893.5C 2969.5,1971.17 2969.5,2048.83 2969.5,2126.5C 2915.17,2126.5 2860.83,2126.5 2806.5,2126.5C 2806.5,2048.83 2806.5,1971.17 2806.5,1893.5 Z"/></g>
<g><path style="opacity:1" fill="#01b23b" d="M 2969.5,1893.5 C 3016.17,1893.5 3062.83,1893.5 3109.5,1893.5C 3109.5,1951.5 3109.5,2009.5 3109.5,2067.5C 3076.26,2073.74 3056.26,2093.4 3049.5,2126.5C 3022.83,2126.5 2996.17,2126.5 2969.5,2126.5C 2969.5,2048.83 2969.5,1971.17 2969.5,1893.5 Z"/></g>
<g><path style="opacity:1" fill="#41c56d" d="M 393.5,2090.5 C 392.505,2102.32 392.172,2114.32 392.5,2126.5C 392.167,2126.5 391.833,2126.5 391.5,2126.5C 391.168,2114.15 391.501,2101.82 392.5,2089.5C 393.107,2089.62 393.44,2089.96 393.5,2090.5 Z"/></g>
<g><path style="opacity:1" fill="#04b23c" d="M 393.5,2090.5 C 411.833,2095.5 423.5,2107.17 428.5,2125.5C 416.678,2126.5 404.678,2126.83 392.5,2126.5C 392.172,2114.32 392.505,2102.32 393.5,2090.5 Z"/></g>
<g><path style="opacity:1" fill="#06b23c" d="M 3106.5,2090.5 C 3108.48,2102.12 3109.15,2114.12 3108.5,2126.5C 3096.12,2127.15 3084.12,2126.48 3072.5,2124.5C 3077.5,2106.83 3088.83,2095.5 3106.5,2090.5 Z"/></g>
<g><path style="opacity:1" fill="#8ddca7" d="M 3106.5,2090.5 C 3107.21,2089.6 3108.21,2089.26 3109.5,2089.5C 3109.83,2102.01 3109.5,2114.34 3108.5,2126.5C 3109.15,2114.12 3108.48,2102.12 3106.5,2090.5 Z"/></g>
<g><path style="opacity:1" fill="#9ee1b5" d="M 428.5,2125.5 C 429.043,2125.56 429.376,2125.89 429.5,2126.5C 416.673,2127.82 404.006,2127.82 391.5,2126.5C 391.833,2126.5 392.167,2126.5 392.5,2126.5C 404.678,2126.83 416.678,2126.5 428.5,2125.5 Z"/></g>
<g><path style="opacity:1" fill="#9ce0b3" d="M 3072.5,2124.5 C 3084.12,2126.48 3096.12,2127.15 3108.5,2126.5C 3096.34,2127.5 3084.01,2127.83 3071.5,2127.5C 3071.26,2126.21 3071.6,2125.21 3072.5,2124.5 Z"/></g>
<g><path style="opacity:1" fill="#b2e5c2" d="M 3131.5,1893.5 C 3131.5,1978.83 3131.5,2064.17 3131.5,2149.5C 3077.5,2149.5 3023.5,2149.5 2969.5,2149.5C 2915.17,2149.5 2860.83,2149.5 2806.5,2149.5C 2752.5,2149.5 2698.5,2149.5 2644.5,2149.5C 2590.5,2149.5 2536.5,2149.5 2482.5,2149.5C 2482.17,2149.5 2481.83,2149.5 2481.5,2149.5C 2427.5,2149.5 2373.5,2149.5 2319.5,2149.5C 2265.17,2149.5 2210.83,2149.5 2156.5,2149.5C 2102.5,2149.5 2048.5,2149.5 1994.5,2149.5C 1940.17,2149.5 1885.83,2149.5 1831.5,2149.5C 1808.17,2149.5 1784.83,2149.5 1761.5,2149.5C 2217.67,2148.5 2674,2148.17 3130.5,2148.5C 3130.17,2063.33 3130.5,1978.33 3131.5,1893.5 Z"/></g>
<g><path style="opacity:1" fill="#00b23a" d="M 369.5,2149.5 C 423.167,2149.5 476.833,2149.5 530.5,2149.5C 530.5,2204.17 530.5,2258.83 530.5,2313.5C 476.833,2313.5 423.167,2313.5 369.5,2313.5C 369.5,2258.83 369.5,2204.17 369.5,2149.5 Z"/></g>
<g><path style="opacity:0.539" fill="#00a836" d="M 530.5,2149.5 C 530.833,2149.5 531.167,2149.5 531.5,2149.5C 531.5,2203.83 531.5,2258.17 531.5,2312.5C 585.5,2312.5 639.5,2312.5 693.5,2312.5C 693.5,2258.17 693.5,2203.83 693.5,2149.5C 693.833,2149.5 694.167,2149.5 694.5,2149.5C 694.5,2204.17 694.5,2258.83 694.5,2313.5C 639.833,2313.5 585.167,2313.5 530.5,2313.5C 530.5,2258.83 530.5,2204.17 530.5,2149.5 Z"/></g>
<g><path style="opacity:1" fill="#009932" d="M 531.5,2149.5 C 585.5,2149.5 639.5,2149.5 693.5,2149.5C 693.5,2203.83 693.5,2258.17 693.5,2312.5C 639.5,2312.5 585.5,2312.5 531.5,2312.5C 531.5,2258.17 531.5,2203.83 531.5,2149.5 Z"/></g>
<g><path style="opacity:1" fill="#00b23a" d="M 694.5,2149.5 C 748.5,2149.5 802.5,2149.5 856.5,2149.5C 856.5,2204.17 856.5,2258.83 856.5,2313.5C 802.5,2313.5 748.5,2313.5 694.5,2313.5C 694.5,2258.83 694.5,2204.17 694.5,2149.5 Z"/></g>
<g><path style="opacity:1" fill="#009933" d="M 856.5,2149.5 C 910.5,2149.5 964.5,2149.5 1018.5,2149.5C 1018.5,2203.83 1018.5,2258.17 1018.5,2312.5C 964.664,2312.17 910.997,2312.5 857.5,2313.5C 857.167,2313.5 856.833,2313.5 856.5,2313.5C 856.5,2258.83 856.5,2204.17 856.5,2149.5 Z"/></g>
<g><path style="opacity:1" fill="#00b13a" d="M 1018.5,2149.5 C 1072.83,2149.5 1127.17,2149.5 1181.5,2149.5C 1181.5,2204.17 1181.5,2258.83 1181.5,2313.5C 1073.5,2313.5 965.5,2313.5 857.5,2313.5C 910.997,2312.5 964.664,2312.17 1018.5,2312.5C 1018.5,2258.17 1018.5,2203.83 1018.5,2149.5 Z"/></g>
<g><path style="opacity:1" fill="#009933" d="M 1181.5,2149.5 C 1235.5,2149.5 1289.5,2149.5 1343.5,2149.5C 1343.5,2203.83 1343.5,2258.17 1343.5,2312.5C 1289.66,2312.17 1236,2312.5 1182.5,2313.5C 1182.17,2313.5 1181.83,2313.5 1181.5,2313.5C 1181.5,2258.83 1181.5,2204.17 1181.5,2149.5 Z"/></g>
<g><path style="opacity:1" fill="#00b13a" d="M 1343.5,2149.5 C 1397.83,2149.5 1452.17,2149.5 1506.5,2149.5C 1506.5,2204.17 1506.5,2258.83 1506.5,2313.5C 1398.5,2313.5 1290.5,2313.5 1182.5,2313.5C 1236,2312.5 1289.66,2312.17 1343.5,2312.5C 1343.5,2258.17 1343.5,2203.83 1343.5,2149.5 Z"/></g>
<g><path style="opacity:1" fill="#009933" d="M 1506.5,2149.5 C 1560.83,2149.5 1615.17,2149.5 1669.5,2149.5C 1669.5,2203.83 1669.5,2258.17 1669.5,2312.5C 1615.33,2312.17 1561.33,2312.5 1507.5,2313.5C 1507.17,2313.5 1506.83,2313.5 1506.5,2313.5C 1506.5,2258.83 1506.5,2204.17 1506.5,2149.5 Z"/></g>
<g><path style="opacity:1" fill="#00b13a" d="M 1669.5,2149.5 C 1700.17,2149.5 1730.83,2149.5 1761.5,2149.5C 1784.83,2149.5 1808.17,2149.5 1831.5,2149.5C 1831.5,2204.17 1831.5,2258.83 1831.5,2313.5C 1723.5,2313.5 1615.5,2313.5 1507.5,2313.5C 1561.33,2312.5 1615.33,2312.17 1669.5,2312.5C 1669.5,2258.17 1669.5,2203.83 1669.5,2149.5 Z"/></g>
<g><path style="opacity:1" fill="#009933" d="M 1831.5,2149.5 C 1885.83,2149.5 1940.17,2149.5 1994.5,2149.5C 1994.5,2203.83 1994.5,2258.17 1994.5,2312.5C 1940.33,2312.17 1886.33,2312.5 1832.5,2313.5C 1832.17,2313.5 1831.83,2313.5 1831.5,2313.5C 1831.5,2258.83 1831.5,2204.17 1831.5,2149.5 Z"/></g>
<g><path style="opacity:1" fill="#00b13a" d="M 1994.5,2149.5 C 2048.5,2149.5 2102.5,2149.5 2156.5,2149.5C 2156.5,2204.17 2156.5,2258.83 2156.5,2313.5C 2048.5,2313.5 1940.5,2313.5 1832.5,2313.5C 1886.33,2312.5 1940.33,2312.17 1994.5,2312.5C 1994.5,2258.17 1994.5,2203.83 1994.5,2149.5 Z"/></g>
<g><path style="opacity:1" fill="#009933" d="M 2156.5,2149.5 C 2210.83,2149.5 2265.17,2149.5 2319.5,2149.5C 2319.5,2203.83 2319.5,2258.17 2319.5,2312.5C 2265.33,2312.17 2211.33,2312.5 2157.5,2313.5C 2157.17,2313.5 2156.83,2313.5 2156.5,2313.5C 2156.5,2258.83 2156.5,2204.17 2156.5,2149.5 Z"/></g>
<g><path style="opacity:1" fill="#00b13a" d="M 2319.5,2149.5 C 2373.5,2149.5 2427.5,2149.5 2481.5,2149.5C 2481.5,2204.17 2481.5,2258.83 2481.5,2313.5C 2373.5,2313.5 2265.5,2313.5 2157.5,2313.5C 2211.33,2312.5 2265.33,2312.17 2319.5,2312.5C 2319.5,2258.17 2319.5,2203.83 2319.5,2149.5 Z"/></g>
<g><path style="opacity:1" fill="#009933" d="M 2482.5,2149.5 C 2536.5,2149.5 2590.5,2149.5 2644.5,2149.5C 2644.5,2203.83 2644.5,2258.17 2644.5,2312.5C 2590.5,2312.5 2536.5,2312.5 2482.5,2312.5C 2482.5,2258.17 2482.5,2203.83 2482.5,2149.5 Z"/></g>
<g><path style="opacity:1" fill="#00b13a" d="M 2644.5,2149.5 C 2698.5,2149.5 2752.5,2149.5 2806.5,2149.5C 2806.5,2203.83 2806.5,2258.17 2806.5,2312.5C 2860.83,2312.5 2915.17,2312.5 2969.5,2312.5C 2969.5,2258.17 2969.5,2203.83 2969.5,2149.5C 3023.5,2149.5 3077.5,2149.5 3131.5,2149.5C 3131.17,2204 3131.5,2258.34 3132.5,2312.5C 3132.5,2312.83 3132.5,2313.17 3132.5,2313.5C 2969.83,2313.5 2807.17,2313.5 2644.5,2313.5C 2644.5,2313.17 2644.5,2312.83 2644.5,2312.5C 2644.5,2258.17 2644.5,2203.83 2644.5,2149.5 Z"/></g>
<g><path style="opacity:1" fill="#009933" d="M 2806.5,2149.5 C 2860.83,2149.5 2915.17,2149.5 2969.5,2149.5C 2969.5,2203.83 2969.5,2258.17 2969.5,2312.5C 2915.17,2312.5 2860.83,2312.5 2806.5,2312.5C 2806.5,2258.17 2806.5,2203.83 2806.5,2149.5 Z"/></g>
<g><path style="opacity:0.078" fill="#00a534" d="M 2481.5,2149.5 C 2481.83,2149.5 2482.17,2149.5 2482.5,2149.5C 2482.5,2203.83 2482.5,2258.17 2482.5,2312.5C 2536.5,2312.5 2590.5,2312.5 2644.5,2312.5C 2644.5,2312.83 2644.5,2313.17 2644.5,2313.5C 2590.17,2313.5 2535.83,2313.5 2481.5,2313.5C 2481.5,2258.83 2481.5,2204.17 2481.5,2149.5 Z"/></g>
</svg>
