<svg xmlns="http://www.w3.org/2000/svg" version="1.1" xmlns:xlink="http://www.w3.org/1999/xlink" xmlns:svgjs="http://svgjs.dev/svgjs" width="1500" height="1500" viewBox="0 0 1500 1500"><rect width="1500" height="1500" fill="#ffffff"></rect><g transform="matrix(0.6666666666666666,0,0,0.6666666666666666,249.39393939393938,648.632696299455)"><svg viewBox="0 0 396 80" data-background-color="#ffffff" preserveAspectRatio="xMidYMid meet" height="303" width="1500" xmlns="http://www.w3.org/2000/svg" xmlns:xlink="http://www.w3.org/1999/xlink"><g id="tight-bounds" transform="matrix(1,0,0,1,0.2400000000000091,0.14546681209702683)"><svg viewBox="0 0 395.52 79.70906637580596" height="79.70906637580596" width="395.52"><g><svg viewBox="0 0 395.52 79.70906637580596" height="79.70906637580596" width="395.52"><g><svg viewBox="0 0 619.8113972268218 124.9104667324883" height="79.70906637580596" width="395.52"><g><rect width="9.589303479643709" height="106.86559893262172" x="189.59920505701123" y="9.02243389993329" fill="#000000" opacity="1" stroke-width="0" stroke="transparent" fill-opacity="1" class="rect-qz-0" data-fill-palette-color="primary" rx="1%" id="qz-0" data-palette-color="#30cc42"></rect></g><g transform="matrix(1,0,0,1,224.29139722682172,9.28826872314876)"><svg viewBox="0 0 395.52 106.33392928619078" height="106.33392928619078" width="395.52"><g id="textblocktransform"><svg viewBox="0 0 395.52 106.33392928619078" height="106.33392928619078" width="395.52" id="textblock"><g><svg viewBox="0 0 395.52 106.33392928619078" height="106.33392928619078" width="395.52"><g transform="matrix(1,0,0,1,0,0)"><svg width="395.52" viewBox="1 -39.6 149.89 40.300000000000004" height="106.33392928619078" data-palette-color="#30cc42"><g class="wordmark-text-0" data-fill-palette-color="primary" id="text-0"><path d="M24.05 0L1 0 1-8.2 3.5-8.2 3.5-30.7 1-30.7 1-38.9 30.9-38.9 30.9-25.95 22.05-25.95 22.05-30.7 17.5-30.7 17.5-22.4 25.05-22.4 25.05-16.7 17.5-16.7 17.5-8.2 24.05-8.2 24.05 0ZM51.4 0.7Q42.25 0.7 37.27-4.1 32.3-8.9 32.3-19.45L32.3-19.45Q32.3-30 37.27-34.8 42.25-39.6 51.4-39.6L51.4-39.6Q60.55-39.6 65.52-34.8 70.5-30 70.5-19.45L70.5-19.45Q70.5-8.9 65.52-4.1 60.55 0.7 51.4 0.7L51.4 0.7ZM51.4-8.2Q53.1-8.2 53.95-9.1 54.8-10 54.8-11.9L54.8-11.9 54.8-27Q54.8-28.9 53.95-29.8 53.1-30.7 51.4-30.7L51.4-30.7Q49.7-30.7 48.85-29.8 48-28.9 48-27L48-27 48-11.9Q48-9.95 48.85-9.08 49.7-8.2 51.4-8.2L51.4-8.2ZM72.2 0L72.2-8.2 74.7-8.2 74.7-30.7 72.2-30.7 72.2-38.9 95.15-38.9Q101.6-38.9 105-36.25 108.4-33.6 108.4-27.65L108.4-27.65Q108.4-24.3 107.05-21.85 105.7-19.4 103.2-18.45L103.2-18.45 103.25-17.95Q108.05-17.2 108.05-12.05L108.05-12.05 108.05-8.2 110.4-8.2 110.4 0 94.55 0 94.55-11.75Q94.55-13.7 93.97-14.7 93.4-15.7 92.17-16.05 90.95-16.4 88.7-16.4L88.7-16.4 88.7-8.2 92-8.2 92 0 72.2 0ZM88.7-22.5L91.4-22.5Q92.85-22.5 93.57-23.28 94.3-24.05 94.3-25.7L94.3-25.7 94.3-27.5Q94.3-29.15 93.57-29.93 92.85-30.7 91.4-30.7L91.4-30.7 88.7-30.7 88.7-22.5ZM140.44-38.9L148.89-8.2 150.89-8.2 150.89 0 131.29 0 131.29-8.2 134.29-8.2 133.49-12.2 126.69-12.2 125.89-8.2 128.89-8.2 128.89 0 111.79 0 111.79-8.2 113.79-8.2 122.24-38.9 140.44-38.9ZM129.84-27.45L127.79-17.5 132.39-17.5 130.34-27.45 129.84-27.45Z" fill="#000000" data-fill-palette-color="primary"></path></g></svg></g></svg></g></svg></g></svg></g><g><svg viewBox="0 0 164.49631636684447 124.9104667324883" height="124.9104667324883" width="164.49631636684447"><g><svg xmlns="http://www.w3.org/2000/svg" xmlns:xlink="http://www.w3.org/1999/xlink" version="1.0" x="0" y="0" viewBox="4.892578099999998 16.1055908 90.05169670000001 68.3808593" enable-background="new 0 0 100 100" xml:space="preserve" height="124.9104667324883" width="164.49631636684447" class="icon-icon-0" data-fill-palette-color="accent" id="icon-0"><g fill="#111111" data-fill-palette-color="accent"><path d="M70.946 16.106H28.891c-13.254 0-23.998 10.744-23.998 23.998v20.384c0 13.254 10.744 23.998 23.998 23.998h42.055c13.259 0 23.998-10.744 23.998-23.998V40.104C94.944 26.849 84.205 16.106 70.946 16.106zM51.45 42.327c3.749 0.719 6.59 4.014 6.591 7.971 0 3.953-2.842 7.248-6.591 7.967V42.327zM19.001 41.289h10.909v18.014H19.001V41.289zM48.382 58.265c-3.748-0.719-6.59-4.014-6.59-7.967 0-3.957 2.842-7.253 6.59-7.971V58.265zM48.382 39.262c-5.439 0.754-9.654 5.388-9.654 11.036 0 5.64 4.215 10.277 9.654 11.036v9.872H19.001v-8.834h13.974V38.225H19.001v-8.839h29.381V39.262zM80.831 59.303H68.619V41.289h12.212V59.303zM80.831 38.225H65.555v24.147h15.276v8.834H51.45v-9.872c5.44-0.758 9.659-5.396 9.659-11.036 0-5.649-4.219-10.282-9.659-11.036v-9.876h29.381V38.225z" fill="#000000" data-fill-palette-color="accent"></path></g></svg></g></svg></g></svg></g></svg></g><defs></defs></svg><rect width="395.52" height="79.70906637580596" fill="none" stroke="none" visibility="hidden"></rect></g></svg></g></svg>